<svg width="512" height="512" viewBox="0 0 512 512" fill="none" xmlns="http://www.w3.org/2000/svg">
  <!-- App Icon Background -->
  <rect width="512" height="512" rx="114" fill="url(#gradient3)"/>

  <!-- Main sparkle/star -->
  <path
    d="M256 100
       L270 200 L370 214 L270 228 L256 328
       L242 228 L142 214 L242 200 Z"
    fill="white"
    opacity="0.95"
  />

  <!-- Sweep motion trail -->
  <path
    d="M180 320 Q 256 350, 340 320 Q 400 300, 420 350"
    stroke="white"
    stroke-width="24"
    stroke-linecap="round"
    fill="none"
    opacity="0.8"
  />

  <!-- Small sparkles -->
  <path d="M120 150 L128 170 L148 178 L128 186 L120 206 L112 186 L92 178 L112 170 Z" fill="white" opacity="0.6"/>
  <path d="M380 120 L386 135 L401 141 L386 147 L380 162 L374 147 L359 141 L374 135 Z" fill="white" opacity="0.5"/>
  <path d="M400 280 L405 292 L417 297 L405 302 L400 314 L395 302 L383 297 L395 292 Z" fill="white" opacity="0.4"/>

  <defs>
    <linearGradient id="gradient3" x1="0" y1="0" x2="512" y2="512" gradientUnits="userSpaceOnUse">
      <stop offset="0%" stop-color="#8B5CF6"/>
      <stop offset="100%" stop-color="#EC4899"/>
    </linearGradient>
  </defs>
</svg>
